<mxfile host="65bd71144e">
    <diagram id="p_NvklON_nJpqzWZonJb" name="ページ1">
        <mxGraphModel dx="355" dy="683" grid="1" gridSize="10" guides="1" tooltips="1" connect="1" arrows="1" fold="1" page="1" pageScale="1" pageWidth="827" pageHeight="1169" math="0" shadow="0">
            <root>
                <mxCell id="0"/>
                <mxCell id="1" parent="0"/>
                <mxCell id="254" value="" style="rounded=0;whiteSpace=wrap;html=1;" vertex="1" parent="1">
                    <mxGeometry x="400" y="760" width="1160" height="450" as="geometry"/>
                </mxCell>
                <mxCell id="130" value="" style="rounded=0;whiteSpace=wrap;html=1;" vertex="1" parent="1">
                    <mxGeometry x="1000" y="160" width="560" height="520" as="geometry"/>
                </mxCell>
                <mxCell id="50" value="" style="rounded=0;whiteSpace=wrap;html=1;" vertex="1" parent="1">
                    <mxGeometry x="420" y="360" width="480" height="300" as="geometry"/>
                </mxCell>
                <mxCell id="2" value="" style="rounded=0;whiteSpace=wrap;html=1;" vertex="1" parent="1">
                    <mxGeometry x="160" y="150" width="120" height="140" as="geometry"/>
                </mxCell>
                <mxCell id="3" value="prepare_input" style="text;html=1;align=left;verticalAlign=middle;whiteSpace=wrap;rounded=0;" vertex="1" parent="1">
                    <mxGeometry x="170" y="150" width="90" height="30" as="geometry"/>
                </mxCell>
                <mxCell id="5" value="" style="rounded=0;whiteSpace=wrap;html=1;" vertex="1" parent="1">
                    <mxGeometry x="180" y="190" width="80" height="80" as="geometry"/>
                </mxCell>
                <mxCell id="7" value="" style="endArrow=classic;html=1;" edge="1" parent="1">
                    <mxGeometry width="50" height="50" relative="1" as="geometry">
                        <mxPoint x="120" y="210" as="sourcePoint"/>
                        <mxPoint x="180" y="210" as="targetPoint"/>
                    </mxGeometry>
                </mxCell>
                <mxCell id="8" value="" style="endArrow=classic;html=1;" edge="1" parent="1">
                    <mxGeometry width="50" height="50" relative="1" as="geometry">
                        <mxPoint x="120" y="250" as="sourcePoint"/>
                        <mxPoint x="180" y="250" as="targetPoint"/>
                    </mxGeometry>
                </mxCell>
                <mxCell id="9" value="Query, Key, Value" style="text;html=1;align=right;verticalAlign=middle;whiteSpace=wrap;rounded=0;" vertex="1" parent="1">
                    <mxGeometry x="10" y="200" width="100" height="20" as="geometry"/>
                </mxCell>
                <mxCell id="10" value="W_q, W_k, W_v" style="text;html=1;align=right;verticalAlign=middle;whiteSpace=wrap;rounded=0;" vertex="1" parent="1">
                    <mxGeometry x="10" y="240" width="100" height="20" as="geometry"/>
                </mxCell>
                <mxCell id="12" value="forward" style="text;html=1;align=left;verticalAlign=middle;whiteSpace=wrap;rounded=0;" vertex="1" parent="1">
                    <mxGeometry x="150" y="120" width="50" height="30" as="geometry"/>
                </mxCell>
                <mxCell id="20" value="Query, Key, Value&lt;div&gt;(Linearly transformed)&lt;/div&gt;" style="text;html=1;align=center;verticalAlign=middle;whiteSpace=wrap;rounded=0;" vertex="1" parent="1">
                    <mxGeometry x="300" y="195" width="120" height="30" as="geometry"/>
                </mxCell>
                <mxCell id="21" value="_scaled_dot_product_attention" style="text;html=1;align=left;verticalAlign=middle;whiteSpace=wrap;rounded=0;" vertex="1" parent="1">
                    <mxGeometry x="1010" y="160" width="190" height="30" as="geometry"/>
                </mxCell>
                <mxCell id="22" value="" style="endArrow=none;html=1;" edge="1" parent="1">
                    <mxGeometry width="50" height="50" relative="1" as="geometry">
                        <mxPoint x="360" y="430" as="sourcePoint"/>
                        <mxPoint x="360" y="230" as="targetPoint"/>
                    </mxGeometry>
                </mxCell>
                <mxCell id="23" value="" style="endArrow=classic;html=1;" edge="1" parent="1">
                    <mxGeometry width="50" height="50" relative="1" as="geometry">
                        <mxPoint x="360" y="430" as="sourcePoint"/>
                        <mxPoint x="700" y="430" as="targetPoint"/>
                    </mxGeometry>
                </mxCell>
                <mxCell id="24" value="get_landmarks" style="text;html=1;align=left;verticalAlign=middle;whiteSpace=wrap;rounded=0;" vertex="1" parent="1">
                    <mxGeometry x="430" y="360" width="90" height="30" as="geometry"/>
                </mxCell>
                <mxCell id="27" value="" style="endArrow=none;html=1;" edge="1" parent="1">
                    <mxGeometry width="50" height="50" relative="1" as="geometry">
                        <mxPoint x="460" y="520" as="sourcePoint"/>
                        <mxPoint x="460" y="430" as="targetPoint"/>
                    </mxGeometry>
                </mxCell>
                <mxCell id="28" value="" style="endArrow=classic;html=1;" edge="1" parent="1">
                    <mxGeometry width="50" height="50" relative="1" as="geometry">
                        <mxPoint x="460" y="519.68" as="sourcePoint"/>
                        <mxPoint x="500" y="519.68" as="targetPoint"/>
                    </mxGeometry>
                </mxCell>
                <mxCell id="30" value="" style="rounded=0;whiteSpace=wrap;html=1;" vertex="1" parent="1">
                    <mxGeometry x="500" y="460" width="120" height="120" as="geometry"/>
                </mxCell>
                <mxCell id="31" value="size_extraction&lt;div&gt;(Tensor.size)&lt;/div&gt;" style="text;html=1;align=left;verticalAlign=middle;whiteSpace=wrap;rounded=0;" vertex="1" parent="1">
                    <mxGeometry x="510" y="465" width="100" height="40" as="geometry"/>
                </mxCell>
                <mxCell id="32" value="MatMul&lt;div&gt;(nn.Linear)&lt;/div&gt;" style="text;html=1;align=left;verticalAlign=middle;whiteSpace=wrap;rounded=0;" vertex="1" parent="1">
                    <mxGeometry x="190" y="195" width="60" height="40" as="geometry"/>
                </mxCell>
                <mxCell id="33" value="" style="endArrow=classic;html=1;" edge="1" parent="1">
                    <mxGeometry width="50" height="50" relative="1" as="geometry">
                        <mxPoint x="400" y="600" as="sourcePoint"/>
                        <mxPoint x="700" y="600" as="targetPoint"/>
                    </mxGeometry>
                </mxCell>
                <mxCell id="34" value="m (parameter)" style="text;html=1;align=right;verticalAlign=middle;whiteSpace=wrap;rounded=0;" vertex="1" parent="1">
                    <mxGeometry x="300" y="590" width="90" height="20" as="geometry"/>
                </mxCell>
                <mxCell id="35" value="" style="endArrow=classic;html=1;" edge="1" parent="1">
                    <mxGeometry width="50" height="50" relative="1" as="geometry">
                        <mxPoint x="620" y="490" as="sourcePoint"/>
                        <mxPoint x="700" y="490" as="targetPoint"/>
                    </mxGeometry>
                </mxCell>
                <mxCell id="36" value="" style="endArrow=classic;html=1;" edge="1" parent="1">
                    <mxGeometry width="50" height="50" relative="1" as="geometry">
                        <mxPoint x="620" y="550" as="sourcePoint"/>
                        <mxPoint x="700" y="550" as="targetPoint"/>
                    </mxGeometry>
                </mxCell>
                <mxCell id="37" value="" style="endArrow=classic;html=1;" edge="1" parent="1">
                    <mxGeometry width="50" height="50" relative="1" as="geometry">
                        <mxPoint x="620" y="520" as="sourcePoint"/>
                        <mxPoint x="700" y="520" as="targetPoint"/>
                    </mxGeometry>
                </mxCell>
                <mxCell id="38" value="(B)" style="text;html=1;align=center;verticalAlign=middle;whiteSpace=wrap;rounded=0;" vertex="1" parent="1">
                    <mxGeometry x="640" y="470" width="40" height="15" as="geometry"/>
                </mxCell>
                <mxCell id="39" value="n" style="text;html=1;align=center;verticalAlign=middle;whiteSpace=wrap;rounded=0;" vertex="1" parent="1">
                    <mxGeometry x="640" y="500" width="40" height="15" as="geometry"/>
                </mxCell>
                <mxCell id="40" value="(E)" style="text;html=1;align=center;verticalAlign=middle;whiteSpace=wrap;rounded=0;" vertex="1" parent="1">
                    <mxGeometry x="640" y="530" width="40" height="15" as="geometry"/>
                </mxCell>
                <mxCell id="42" value="m" style="text;html=1;align=center;verticalAlign=middle;whiteSpace=wrap;rounded=0;" vertex="1" parent="1">
                    <mxGeometry x="640" y="580" width="40" height="15" as="geometry"/>
                </mxCell>
                <mxCell id="43" value="" style="rounded=0;whiteSpace=wrap;html=1;" vertex="1" parent="1">
                    <mxGeometry x="700" y="400" width="120" height="230" as="geometry"/>
                </mxCell>
                <mxCell id="44" value="mean_caluculator" style="text;html=1;align=left;verticalAlign=middle;whiteSpace=wrap;rounded=0;" vertex="1" parent="1">
                    <mxGeometry x="710" y="400" width="110" height="30" as="geometry"/>
                </mxCell>
                <mxCell id="46" value="" style="endArrow=none;html=1;" edge="1" parent="1">
                    <mxGeometry width="50" height="50" relative="1" as="geometry">
                        <mxPoint x="820" y="520" as="sourcePoint"/>
                        <mxPoint x="940" y="520" as="targetPoint"/>
                    </mxGeometry>
                </mxCell>
                <mxCell id="49" value="landmarks" style="text;html=1;align=center;verticalAlign=middle;whiteSpace=wrap;rounded=0;" vertex="1" parent="1">
                    <mxGeometry x="830" y="495" width="60" height="20" as="geometry"/>
                </mxCell>
                <mxCell id="51" value="Query, Key, Value" style="text;html=1;align=right;verticalAlign=middle;whiteSpace=wrap;rounded=0;" vertex="1" parent="1">
                    <mxGeometry x="870" y="205" width="110" height="20" as="geometry"/>
                </mxCell>
                <mxCell id="52" value="" style="endArrow=none;html=1;" edge="1" parent="1">
                    <mxGeometry width="50" height="50" relative="1" as="geometry">
                        <mxPoint x="940" y="520" as="sourcePoint"/>
                        <mxPoint x="940" y="290" as="targetPoint"/>
                    </mxGeometry>
                </mxCell>
                <mxCell id="54" value="Q_landmarks, K_landmarks" style="text;html=1;align=right;verticalAlign=middle;whiteSpace=wrap;rounded=0;" vertex="1" parent="1">
                    <mxGeometry x="820" y="260" width="160" height="20" as="geometry"/>
                </mxCell>
                <mxCell id="55" value="Query, Key" style="text;html=1;align=center;verticalAlign=middle;whiteSpace=wrap;rounded=0;" vertex="1" parent="1">
                    <mxGeometry x="415" y="400" width="95" height="25" as="geometry"/>
                </mxCell>
                <mxCell id="56" value="" style="endArrow=none;html=1;" edge="1" parent="1">
                    <mxGeometry width="50" height="50" relative="1" as="geometry">
                        <mxPoint x="260" y="229.5" as="sourcePoint"/>
                        <mxPoint x="1020" y="230" as="targetPoint"/>
                    </mxGeometry>
                </mxCell>
                <mxCell id="57" value="" style="endArrow=none;html=1;" edge="1" parent="1">
                    <mxGeometry width="50" height="50" relative="1" as="geometry">
                        <mxPoint x="940" y="290" as="sourcePoint"/>
                        <mxPoint x="1020" y="290" as="targetPoint"/>
                    </mxGeometry>
                </mxCell>
                <mxCell id="58" value="" style="endArrow=none;html=1;" edge="1" parent="1">
                    <mxGeometry width="50" height="50" relative="1" as="geometry">
                        <mxPoint x="1020" y="290" as="sourcePoint"/>
                        <mxPoint x="1020" y="230" as="targetPoint"/>
                    </mxGeometry>
                </mxCell>
                <mxCell id="60" value="" style="endArrow=none;html=1;" edge="1" parent="1">
                    <mxGeometry width="50" height="50" relative="1" as="geometry">
                        <mxPoint x="1060" y="370" as="sourcePoint"/>
                        <mxPoint x="1060" y="310" as="targetPoint"/>
                    </mxGeometry>
                </mxCell>
                <mxCell id="61" value="" style="endArrow=classic;html=1;" edge="1" parent="1">
                    <mxGeometry width="50" height="50" relative="1" as="geometry">
                        <mxPoint x="1060" y="310" as="sourcePoint"/>
                        <mxPoint x="1150" y="310" as="targetPoint"/>
                    </mxGeometry>
                </mxCell>
                <mxCell id="62" value="" style="endArrow=classic;html=1;" edge="1" parent="1">
                    <mxGeometry width="50" height="50" relative="1" as="geometry">
                        <mxPoint x="1060" y="370" as="sourcePoint"/>
                        <mxPoint x="1150" y="370" as="targetPoint"/>
                    </mxGeometry>
                </mxCell>
                <mxCell id="74" value="" style="group" vertex="1" connectable="0" parent="1">
                    <mxGeometry x="1151" y="290" width="89" height="100" as="geometry"/>
                </mxCell>
                <mxCell id="63" value="" style="rounded=0;whiteSpace=wrap;html=1;" vertex="1" parent="74">
                    <mxGeometry width="89" height="100" as="geometry"/>
                </mxCell>
                <mxCell id="64" value="MatMul&lt;div&gt;(torch.bmm)&lt;/div&gt;" style="text;html=1;align=left;verticalAlign=middle;whiteSpace=wrap;rounded=0;" vertex="1" parent="74">
                    <mxGeometry x="9.88888888888889" y="5" width="69.22222222222223" height="40" as="geometry"/>
                </mxCell>
                <mxCell id="75" value="Q_landmarks" style="text;html=1;align=right;verticalAlign=middle;whiteSpace=wrap;rounded=0;" vertex="1" parent="1">
                    <mxGeometry x="1080" y="285" width="60" height="20" as="geometry"/>
                </mxCell>
                <mxCell id="76" value="Key" style="text;html=1;align=right;verticalAlign=middle;whiteSpace=wrap;rounded=0;" vertex="1" parent="1">
                    <mxGeometry x="1065" y="375" width="75" height="20" as="geometry"/>
                </mxCell>
                <mxCell id="77" value="" style="endArrow=none;html=1;" edge="1" parent="1">
                    <mxGeometry width="50" height="50" relative="1" as="geometry">
                        <mxPoint x="1060" y="500" as="sourcePoint"/>
                        <mxPoint x="1060" y="440" as="targetPoint"/>
                    </mxGeometry>
                </mxCell>
                <mxCell id="78" value="" style="endArrow=classic;html=1;" edge="1" parent="1">
                    <mxGeometry width="50" height="50" relative="1" as="geometry">
                        <mxPoint x="1060" y="440" as="sourcePoint"/>
                        <mxPoint x="1150" y="440" as="targetPoint"/>
                    </mxGeometry>
                </mxCell>
                <mxCell id="79" value="" style="endArrow=classic;html=1;" edge="1" parent="1">
                    <mxGeometry width="50" height="50" relative="1" as="geometry">
                        <mxPoint x="1060" y="500" as="sourcePoint"/>
                        <mxPoint x="1150" y="500" as="targetPoint"/>
                    </mxGeometry>
                </mxCell>
                <mxCell id="80" value="" style="group" vertex="1" connectable="0" parent="1">
                    <mxGeometry x="1151" y="420" width="89" height="100" as="geometry"/>
                </mxCell>
                <mxCell id="81" value="" style="rounded=0;whiteSpace=wrap;html=1;" vertex="1" parent="80">
                    <mxGeometry width="89" height="100" as="geometry"/>
                </mxCell>
                <mxCell id="82" value="MatMul&lt;div&gt;(torch.bmm)&lt;/div&gt;" style="text;html=1;align=left;verticalAlign=middle;whiteSpace=wrap;rounded=0;" vertex="1" parent="80">
                    <mxGeometry x="9.88888888888889" y="5" width="69.22222222222223" height="40" as="geometry"/>
                </mxCell>
                <mxCell id="83" value="Query" style="text;html=1;align=right;verticalAlign=middle;whiteSpace=wrap;rounded=0;" vertex="1" parent="1">
                    <mxGeometry x="1080" y="415" width="60" height="20" as="geometry"/>
                </mxCell>
                <mxCell id="84" value="K_landmarks" style="text;html=1;align=right;verticalAlign=middle;whiteSpace=wrap;rounded=0;" vertex="1" parent="1">
                    <mxGeometry x="1065" y="505" width="75" height="20" as="geometry"/>
                </mxCell>
                <mxCell id="85" value="" style="endArrow=none;html=1;" edge="1" parent="1">
                    <mxGeometry width="50" height="50" relative="1" as="geometry">
                        <mxPoint x="1060" y="630" as="sourcePoint"/>
                        <mxPoint x="1060" y="570" as="targetPoint"/>
                    </mxGeometry>
                </mxCell>
                <mxCell id="86" value="" style="endArrow=classic;html=1;" edge="1" parent="1">
                    <mxGeometry width="50" height="50" relative="1" as="geometry">
                        <mxPoint x="1060" y="570" as="sourcePoint"/>
                        <mxPoint x="1150" y="570" as="targetPoint"/>
                    </mxGeometry>
                </mxCell>
                <mxCell id="87" value="" style="endArrow=classic;html=1;" edge="1" parent="1">
                    <mxGeometry width="50" height="50" relative="1" as="geometry">
                        <mxPoint x="1060" y="630" as="sourcePoint"/>
                        <mxPoint x="1150" y="630" as="targetPoint"/>
                    </mxGeometry>
                </mxCell>
                <mxCell id="88" value="" style="group" vertex="1" connectable="0" parent="1">
                    <mxGeometry x="1151" y="550" width="89" height="100" as="geometry"/>
                </mxCell>
                <mxCell id="89" value="" style="rounded=0;whiteSpace=wrap;html=1;" vertex="1" parent="88">
                    <mxGeometry width="89" height="100" as="geometry"/>
                </mxCell>
                <mxCell id="90" value="MatMul&lt;div&gt;(torch.bmm)&lt;/div&gt;" style="text;html=1;align=left;verticalAlign=middle;whiteSpace=wrap;rounded=0;" vertex="1" parent="88">
                    <mxGeometry x="9.88888888888889" y="5" width="69.22222222222223" height="40" as="geometry"/>
                </mxCell>
                <mxCell id="91" value="Q_landmarks" style="text;html=1;align=right;verticalAlign=middle;whiteSpace=wrap;rounded=0;" vertex="1" parent="1">
                    <mxGeometry x="1080" y="545" width="60" height="20" as="geometry"/>
                </mxCell>
                <mxCell id="92" value="K_landmarks" style="text;html=1;align=right;verticalAlign=middle;whiteSpace=wrap;rounded=0;" vertex="1" parent="1">
                    <mxGeometry x="1065" y="635" width="75" height="20" as="geometry"/>
                </mxCell>
                <mxCell id="93" value="" style="endArrow=none;html=1;" edge="1" parent="1">
                    <mxGeometry width="50" height="50" relative="1" as="geometry">
                        <mxPoint x="1040" y="600" as="sourcePoint"/>
                        <mxPoint x="1040" y="260" as="targetPoint"/>
                    </mxGeometry>
                </mxCell>
                <mxCell id="94" value="" style="endArrow=none;html=1;" edge="1" parent="1">
                    <mxGeometry width="50" height="50" relative="1" as="geometry">
                        <mxPoint x="1040" y="470" as="sourcePoint"/>
                        <mxPoint x="1060" y="470" as="targetPoint"/>
                    </mxGeometry>
                </mxCell>
                <mxCell id="95" value="" style="endArrow=none;html=1;" edge="1" parent="1">
                    <mxGeometry width="50" height="50" relative="1" as="geometry">
                        <mxPoint x="1040" y="600" as="sourcePoint"/>
                        <mxPoint x="1060" y="600" as="targetPoint"/>
                    </mxGeometry>
                </mxCell>
                <mxCell id="98" value="" style="endArrow=classic;html=1;" edge="1" parent="1">
                    <mxGeometry width="50" height="50" relative="1" as="geometry">
                        <mxPoint x="1240" y="469.47" as="sourcePoint"/>
                        <mxPoint x="1420" y="469" as="targetPoint"/>
                    </mxGeometry>
                </mxCell>
                <mxCell id="99" value="kernel_1" style="text;html=1;align=center;verticalAlign=middle;whiteSpace=wrap;rounded=0;" vertex="1" parent="1">
                    <mxGeometry x="1290" y="440" width="60" height="30" as="geometry"/>
                </mxCell>
                <mxCell id="101" value="kernel_2" style="text;html=1;align=center;verticalAlign=middle;whiteSpace=wrap;rounded=0;" vertex="1" parent="1">
                    <mxGeometry x="1240.5" y="570" width="60" height="30" as="geometry"/>
                </mxCell>
                <mxCell id="104" value="kernel_3" style="text;html=1;align=center;verticalAlign=middle;whiteSpace=wrap;rounded=0;" vertex="1" parent="1">
                    <mxGeometry x="1270" y="310" width="60" height="30" as="geometry"/>
                </mxCell>
                <mxCell id="106" value="" style="endArrow=classic;html=1;" edge="1" parent="1">
                    <mxGeometry width="50" height="50" relative="1" as="geometry">
                        <mxPoint x="1020" y="260" as="sourcePoint"/>
                        <mxPoint x="1360" y="260" as="targetPoint"/>
                    </mxGeometry>
                </mxCell>
                <mxCell id="107" value="" style="endArrow=classic;html=1;" edge="1" parent="1">
                    <mxGeometry width="50" height="50" relative="1" as="geometry">
                        <mxPoint x="1240" y="340" as="sourcePoint"/>
                        <mxPoint x="1360" y="340" as="targetPoint"/>
                    </mxGeometry>
                </mxCell>
                <mxCell id="108" value="Value" style="text;html=1;align=center;verticalAlign=middle;whiteSpace=wrap;rounded=0;" vertex="1" parent="1">
                    <mxGeometry x="1270" y="230" width="60" height="30" as="geometry"/>
                </mxCell>
                <mxCell id="109" value="" style="group" vertex="1" connectable="0" parent="1">
                    <mxGeometry x="1360" y="240" width="89" height="120" as="geometry"/>
                </mxCell>
                <mxCell id="110" value="" style="rounded=0;whiteSpace=wrap;html=1;" vertex="1" parent="109">
                    <mxGeometry width="89" height="120" as="geometry"/>
                </mxCell>
                <mxCell id="111" value="MatMul&lt;div&gt;(torch.bmm)&lt;/div&gt;" style="text;html=1;align=left;verticalAlign=middle;whiteSpace=wrap;rounded=0;" vertex="1" parent="109">
                    <mxGeometry x="9.88888888888889" y="6" width="69.22222222222223" height="48" as="geometry"/>
                </mxCell>
                <mxCell id="112" value="" style="group" vertex="1" connectable="0" parent="1">
                    <mxGeometry x="1400" y="440" width="89" height="200" as="geometry"/>
                </mxCell>
                <mxCell id="113" value="" style="rounded=0;whiteSpace=wrap;html=1;" vertex="1" parent="112">
                    <mxGeometry width="89" height="200" as="geometry"/>
                </mxCell>
                <mxCell id="114" value="MatMul&lt;div&gt;(torch.bmm)&lt;/div&gt;" style="text;html=1;align=left;verticalAlign=middle;whiteSpace=wrap;rounded=0;" vertex="1" parent="112">
                    <mxGeometry x="9.88888888888889" y="10" width="69.22222222222223" height="80" as="geometry"/>
                </mxCell>
                <mxCell id="115" value="" style="endArrow=none;html=1;" edge="1" parent="1">
                    <mxGeometry width="50" height="50" relative="1" as="geometry">
                        <mxPoint x="1240" y="600" as="sourcePoint"/>
                        <mxPoint x="1280" y="600" as="targetPoint"/>
                    </mxGeometry>
                </mxCell>
                <mxCell id="118" value="" style="endArrow=none;html=1;" edge="1" parent="1">
                    <mxGeometry width="50" height="50" relative="1" as="geometry">
                        <mxPoint x="1280" y="720" as="sourcePoint"/>
                        <mxPoint x="1280" y="600" as="targetPoint"/>
                    </mxGeometry>
                </mxCell>
                <mxCell id="119" value="" style="endArrow=none;html=1;" edge="1" parent="1">
                    <mxGeometry width="50" height="50" relative="1" as="geometry">
                        <mxPoint x="1360" y="720" as="sourcePoint"/>
                        <mxPoint x="1360" y="600" as="targetPoint"/>
                    </mxGeometry>
                </mxCell>
                <mxCell id="120" value="" style="endArrow=classic;html=1;" edge="1" parent="1">
                    <mxGeometry width="50" height="50" relative="1" as="geometry">
                        <mxPoint x="1360" y="600" as="sourcePoint"/>
                        <mxPoint x="1400" y="600" as="targetPoint"/>
                    </mxGeometry>
                </mxCell>
                <mxCell id="121" value="kernel_2_inv" style="text;html=1;align=center;verticalAlign=middle;whiteSpace=wrap;rounded=0;" vertex="1" parent="1">
                    <mxGeometry x="1330" y="570" width="60" height="30" as="geometry"/>
                </mxCell>
                <mxCell id="124" value="" style="endArrow=none;html=1;" edge="1" parent="1">
                    <mxGeometry width="50" height="50" relative="1" as="geometry">
                        <mxPoint x="1450" y="300" as="sourcePoint"/>
                        <mxPoint x="1520" y="300" as="targetPoint"/>
                    </mxGeometry>
                </mxCell>
                <mxCell id="125" value="" style="endArrow=none;html=1;" edge="1" parent="1">
                    <mxGeometry width="50" height="50" relative="1" as="geometry">
                        <mxPoint x="1490" y="540" as="sourcePoint"/>
                        <mxPoint x="1520" y="540" as="targetPoint"/>
                    </mxGeometry>
                </mxCell>
                <mxCell id="126" value="" style="endArrow=none;html=1;" edge="1" parent="1">
                    <mxGeometry width="50" height="50" relative="1" as="geometry">
                        <mxPoint x="1520" y="540" as="sourcePoint"/>
                        <mxPoint x="1520" y="300" as="targetPoint"/>
                    </mxGeometry>
                </mxCell>
                <mxCell id="127" value="" style="endArrow=classic;html=1;" edge="1" parent="1">
                    <mxGeometry width="50" height="50" relative="1" as="geometry">
                        <mxPoint x="1520" y="420" as="sourcePoint"/>
                        <mxPoint x="1600" y="420" as="targetPoint"/>
                    </mxGeometry>
                </mxCell>
                <mxCell id="129" value="output" style="text;html=1;align=left;verticalAlign=middle;whiteSpace=wrap;rounded=0;" vertex="1" parent="1">
                    <mxGeometry x="1610" y="400" width="36" height="40" as="geometry"/>
                </mxCell>
                <mxCell id="131" value="iterative_inv" style="text;html=1;align=left;verticalAlign=middle;whiteSpace=wrap;rounded=0;" vertex="1" parent="1">
                    <mxGeometry x="410" y="760" width="100" height="30" as="geometry"/>
                </mxCell>
                <mxCell id="132" value="" style="endArrow=none;html=1;" edge="1" parent="1">
                    <mxGeometry width="50" height="50" relative="1" as="geometry">
                        <mxPoint x="380" y="720" as="sourcePoint"/>
                        <mxPoint x="1280" y="720" as="targetPoint"/>
                    </mxGeometry>
                </mxCell>
                <mxCell id="170" value="" style="group" vertex="1" connectable="0" parent="1">
                    <mxGeometry x="439.5" y="839" width="700" height="211" as="geometry"/>
                </mxCell>
                <mxCell id="135" value="" style="group" vertex="1" connectable="0" parent="170">
                    <mxGeometry y="11" width="160" height="80" as="geometry"/>
                </mxCell>
                <mxCell id="133" value="" style="rounded=0;whiteSpace=wrap;html=1;" vertex="1" parent="135">
                    <mxGeometry width="160" height="80" as="geometry"/>
                </mxCell>
                <mxCell id="134" value="taking_absolute_value&lt;div&gt;(torch.abs)&lt;/div&gt;" style="text;html=1;align=left;verticalAlign=middle;whiteSpace=wrap;rounded=0;" vertex="1" parent="135">
                    <mxGeometry x="10" y="5" width="130" height="40" as="geometry"/>
                </mxCell>
                <mxCell id="136" value="" style="group" vertex="1" connectable="0" parent="170">
                    <mxGeometry x="220" y="11" width="160" height="80" as="geometry"/>
                </mxCell>
                <mxCell id="137" value="" style="rounded=0;whiteSpace=wrap;html=1;" vertex="1" parent="136">
                    <mxGeometry width="160" height="80" as="geometry"/>
                </mxCell>
                <mxCell id="138" value="&lt;div&gt;&lt;font color=&quot;#000000&quot;&gt;accumulator_row&lt;/font&gt;&lt;/div&gt;&lt;div&gt;(torch.sum)&lt;/div&gt;" style="text;html=1;align=left;verticalAlign=middle;whiteSpace=wrap;rounded=0;" vertex="1" parent="136">
                    <mxGeometry x="10" y="5" width="130" height="40" as="geometry"/>
                </mxCell>
                <mxCell id="146" value="" style="group" vertex="1" connectable="0" parent="170">
                    <mxGeometry x="220" y="111" width="160" height="80" as="geometry"/>
                </mxCell>
                <mxCell id="147" value="" style="rounded=0;whiteSpace=wrap;html=1;" vertex="1" parent="146">
                    <mxGeometry width="160" height="80" as="geometry"/>
                </mxCell>
                <mxCell id="148" value="&lt;div&gt;&lt;font color=&quot;#000000&quot;&gt;accumulator_column&lt;/font&gt;&lt;/div&gt;&lt;div&gt;(torch.sum)&lt;/div&gt;" style="text;html=1;align=left;verticalAlign=middle;whiteSpace=wrap;rounded=0;" vertex="1" parent="146">
                    <mxGeometry x="10" y="5" width="130" height="40" as="geometry"/>
                </mxCell>
                <mxCell id="149" value="" style="group" vertex="1" connectable="0" parent="170">
                    <mxGeometry x="420" y="11" width="100" height="80" as="geometry"/>
                </mxCell>
                <mxCell id="150" value="" style="rounded=0;whiteSpace=wrap;html=1;" vertex="1" parent="149">
                    <mxGeometry width="100" height="80" as="geometry"/>
                </mxCell>
                <mxCell id="151" value="&lt;div&gt;&lt;font color=&quot;#000000&quot;&gt;taking_max&lt;/font&gt;&lt;/div&gt;&lt;div&gt;(torch.max)&lt;/div&gt;" style="text;html=1;align=left;verticalAlign=middle;whiteSpace=wrap;rounded=0;" vertex="1" parent="149">
                    <mxGeometry x="6.25" y="5" width="81.25" height="40" as="geometry"/>
                </mxCell>
                <mxCell id="152" value="" style="group" vertex="1" connectable="0" parent="170">
                    <mxGeometry x="420" y="111" width="100" height="80" as="geometry"/>
                </mxCell>
                <mxCell id="153" value="" style="rounded=0;whiteSpace=wrap;html=1;" vertex="1" parent="152">
                    <mxGeometry width="100" height="80" as="geometry"/>
                </mxCell>
                <mxCell id="154" value="&lt;div&gt;&lt;font color=&quot;#000000&quot;&gt;taking_max&lt;/font&gt;&lt;/div&gt;&lt;div&gt;(torch.max)&lt;/div&gt;" style="text;html=1;align=left;verticalAlign=middle;whiteSpace=wrap;rounded=0;" vertex="1" parent="152">
                    <mxGeometry x="6.25" y="5" width="81.25" height="40" as="geometry"/>
                </mxCell>
                <mxCell id="156" value="" style="endArrow=none;html=1;" edge="1" parent="170">
                    <mxGeometry width="50" height="50" relative="1" as="geometry">
                        <mxPoint x="180.5" y="151" as="sourcePoint"/>
                        <mxPoint x="180.5" y="51" as="targetPoint"/>
                    </mxGeometry>
                </mxCell>
                <mxCell id="157" value="" style="endArrow=classic;html=1;" edge="1" parent="170">
                    <mxGeometry width="50" height="50" relative="1" as="geometry">
                        <mxPoint x="160.5" y="51" as="sourcePoint"/>
                        <mxPoint x="220" y="51" as="targetPoint"/>
                    </mxGeometry>
                </mxCell>
                <mxCell id="158" value="" style="endArrow=classic;html=1;" edge="1" parent="170">
                    <mxGeometry width="50" height="50" relative="1" as="geometry">
                        <mxPoint x="180" y="151" as="sourcePoint"/>
                        <mxPoint x="220" y="151" as="targetPoint"/>
                    </mxGeometry>
                </mxCell>
                <mxCell id="159" value="" style="endArrow=classic;html=1;" edge="1" parent="170">
                    <mxGeometry width="50" height="50" relative="1" as="geometry">
                        <mxPoint x="380" y="51" as="sourcePoint"/>
                        <mxPoint x="420" y="51" as="targetPoint"/>
                    </mxGeometry>
                </mxCell>
                <mxCell id="160" value="" style="endArrow=classic;html=1;" edge="1" parent="170">
                    <mxGeometry width="50" height="50" relative="1" as="geometry">
                        <mxPoint x="380" y="150.70000000000005" as="sourcePoint"/>
                        <mxPoint x="420" y="150.70000000000005" as="targetPoint"/>
                    </mxGeometry>
                </mxCell>
                <mxCell id="161" value="" style="endArrow=none;html=1;" edge="1" parent="170">
                    <mxGeometry width="50" height="50" relative="1" as="geometry">
                        <mxPoint x="520" y="51" as="sourcePoint"/>
                        <mxPoint x="540" y="51" as="targetPoint"/>
                    </mxGeometry>
                </mxCell>
                <mxCell id="162" value="" style="endArrow=none;html=1;" edge="1" parent="170">
                    <mxGeometry width="50" height="50" relative="1" as="geometry">
                        <mxPoint x="520" y="151" as="sourcePoint"/>
                        <mxPoint x="540" y="151" as="targetPoint"/>
                    </mxGeometry>
                </mxCell>
                <mxCell id="164" value="" style="endArrow=classic;html=1;" edge="1" parent="170">
                    <mxGeometry width="50" height="50" relative="1" as="geometry">
                        <mxPoint x="540" y="51" as="sourcePoint"/>
                        <mxPoint x="580" y="51" as="targetPoint"/>
                    </mxGeometry>
                </mxCell>
                <mxCell id="165" value="" style="rounded=0;whiteSpace=wrap;html=1;" vertex="1" parent="170">
                    <mxGeometry x="580" y="31" width="80" height="60" as="geometry"/>
                </mxCell>
                <mxCell id="166" value="multiplier" style="text;html=1;align=left;verticalAlign=middle;whiteSpace=wrap;rounded=0;" vertex="1" parent="170">
                    <mxGeometry x="590" y="31" width="60" height="30" as="geometry"/>
                </mxCell>
                <mxCell id="167" value="" style="endArrow=none;html=1;" edge="1" parent="170">
                    <mxGeometry width="50" height="50" relative="1" as="geometry">
                        <mxPoint x="540.5" y="151" as="sourcePoint"/>
                        <mxPoint x="540.5" y="71" as="targetPoint"/>
                    </mxGeometry>
                </mxCell>
                <mxCell id="168" value="" style="endArrow=classic;html=1;" edge="1" parent="170">
                    <mxGeometry width="50" height="50" relative="1" as="geometry">
                        <mxPoint x="540" y="71" as="sourcePoint"/>
                        <mxPoint x="580" y="71" as="targetPoint"/>
                    </mxGeometry>
                </mxCell>
                <mxCell id="174" value="" style="endArrow=none;html=1;" edge="1" parent="170">
                    <mxGeometry width="50" height="50" relative="1" as="geometry">
                        <mxPoint x="690.5" y="20" as="sourcePoint"/>
                        <mxPoint x="690.5" y="-19" as="targetPoint"/>
                    </mxGeometry>
                </mxCell>
                <mxCell id="247" value="" style="endArrow=none;html=1;" edge="1" parent="170">
                    <mxGeometry width="50" height="50" relative="1" as="geometry">
                        <mxPoint x="620.5" y="151" as="sourcePoint"/>
                        <mxPoint x="870.5" y="151" as="targetPoint"/>
                    </mxGeometry>
                </mxCell>
                <mxCell id="246" value="" style="endArrow=none;html=1;" edge="1" parent="170">
                    <mxGeometry width="50" height="50" relative="1" as="geometry">
                        <mxPoint x="619.5799999999999" y="270" as="sourcePoint"/>
                        <mxPoint x="619.5799999999999" y="151" as="targetPoint"/>
                    </mxGeometry>
                </mxCell>
                <mxCell id="172" value="" style="endArrow=none;html=1;" edge="1" parent="1">
                    <mxGeometry width="50" height="50" relative="1" as="geometry">
                        <mxPoint x="380" y="820" as="sourcePoint"/>
                        <mxPoint x="380" y="720" as="targetPoint"/>
                    </mxGeometry>
                </mxCell>
                <mxCell id="173" value="" style="endArrow=classic;html=1;" edge="1" parent="1">
                    <mxGeometry width="50" height="50" relative="1" as="geometry">
                        <mxPoint x="380" y="820" as="sourcePoint"/>
                        <mxPoint x="1380" y="820" as="targetPoint"/>
                    </mxGeometry>
                </mxCell>
                <mxCell id="177" value="" style="rounded=0;whiteSpace=wrap;html=1;" vertex="1" parent="1">
                    <mxGeometry x="1160" y="839" width="120.5" height="80" as="geometry"/>
                </mxCell>
                <mxCell id="176" value="" style="endArrow=classic;html=1;" edge="1" parent="1">
                    <mxGeometry width="50" height="50" relative="1" as="geometry">
                        <mxPoint x="1130" y="859" as="sourcePoint"/>
                        <mxPoint x="1160" y="859" as="targetPoint"/>
                    </mxGeometry>
                </mxCell>
                <mxCell id="178" value="divider" style="text;html=1;align=left;verticalAlign=middle;whiteSpace=wrap;rounded=0;" vertex="1" parent="1">
                    <mxGeometry x="1170" y="839" width="50" height="30" as="geometry"/>
                </mxCell>
                <mxCell id="179" value="" style="endArrow=none;html=1;" edge="1" parent="1">
                    <mxGeometry width="50" height="50" relative="1" as="geometry">
                        <mxPoint x="420" y="890" as="sourcePoint"/>
                        <mxPoint x="420" y="820" as="targetPoint"/>
                    </mxGeometry>
                </mxCell>
                <mxCell id="181" value="" style="endArrow=classic;html=1;" edge="1" parent="1">
                    <mxGeometry width="50" height="50" relative="1" as="geometry">
                        <mxPoint x="1280.5" y="879.5" as="sourcePoint"/>
                        <mxPoint x="1380" y="880" as="targetPoint"/>
                    </mxGeometry>
                </mxCell>
                <mxCell id="182" value="V0" style="text;html=1;align=left;verticalAlign=middle;whiteSpace=wrap;rounded=0;" vertex="1" parent="1">
                    <mxGeometry x="1290" y="849" width="30" height="30" as="geometry"/>
                </mxCell>
                <mxCell id="183" value="K" style="text;html=1;align=right;verticalAlign=middle;whiteSpace=wrap;rounded=0;" vertex="1" parent="1">
                    <mxGeometry x="1340" y="790" width="30" height="30" as="geometry"/>
                </mxCell>
                <mxCell id="184" value="V" style="text;html=1;align=right;verticalAlign=middle;whiteSpace=wrap;rounded=0;" vertex="1" parent="1">
                    <mxGeometry x="1360" y="849" width="10" height="30" as="geometry"/>
                </mxCell>
                <mxCell id="169" value="" style="endArrow=classic;html=1;" edge="1" parent="1">
                    <mxGeometry width="50" height="50" relative="1" as="geometry">
                        <mxPoint x="1100" y="900" as="sourcePoint"/>
                        <mxPoint x="1160" y="900" as="targetPoint"/>
                    </mxGeometry>
                </mxCell>
                <mxCell id="188" value="" style="endArrow=classic;html=1;" edge="1" parent="1">
                    <mxGeometry width="50" height="50" relative="1" as="geometry">
                        <mxPoint x="420" y="890" as="sourcePoint"/>
                        <mxPoint x="440" y="890" as="targetPoint"/>
                    </mxGeometry>
                </mxCell>
                <mxCell id="190" value="" style="rounded=0;whiteSpace=wrap;html=1;fontStyle=1" vertex="1" parent="1">
                    <mxGeometry x="1380" y="790" width="120" height="120" as="geometry"/>
                </mxCell>
                <mxCell id="191" value="MatMul&lt;div&gt;(torch.MatMul)&lt;/div&gt;" style="text;html=1;align=left;verticalAlign=middle;whiteSpace=wrap;rounded=0;" vertex="1" parent="1">
                    <mxGeometry x="1390" y="795" width="60" height="39" as="geometry"/>
                </mxCell>
                <mxCell id="202" value="" style="rounded=0;whiteSpace=wrap;html=1;fontStyle=1" vertex="1" parent="1">
                    <mxGeometry x="620" y="1090" width="120" height="89" as="geometry"/>
                </mxCell>
                <mxCell id="203" value="MatMul&lt;div&gt;(torch.MatMul)&lt;/div&gt;" style="text;html=1;align=left;verticalAlign=middle;whiteSpace=wrap;rounded=0;" vertex="1" parent="1">
                    <mxGeometry x="630" y="1098.5" width="60" height="39" as="geometry"/>
                </mxCell>
                <mxCell id="204" value="" style="endArrow=classic;html=1;" edge="1" parent="1" source="207">
                    <mxGeometry width="50" height="50" relative="1" as="geometry">
                        <mxPoint x="479.5" y="1158" as="sourcePoint"/>
                        <mxPoint x="620" y="1158" as="targetPoint"/>
                    </mxGeometry>
                </mxCell>
                <mxCell id="207" value="+ 7*I" style="rounded=0;whiteSpace=wrap;html=1;" vertex="1" parent="1">
                    <mxGeometry x="559.5" y="1148" width="40" height="20" as="geometry"/>
                </mxCell>
                <mxCell id="214" value="" style="verticalLabelPosition=bottom;shadow=0;dashed=0;align=center;html=1;verticalAlign=top;shape=mxgraph.electrical.logic_gates.inverter_2" vertex="1" parent="1">
                    <mxGeometry x="499.5" y="1149" width="40" height="20" as="geometry"/>
                </mxCell>
                <mxCell id="215" value="" style="endArrow=none;html=1;entryX=0;entryY=0.5;entryDx=0;entryDy=0;entryPerimeter=0;" edge="1" parent="1" target="214">
                    <mxGeometry width="50" height="50" relative="1" as="geometry">
                        <mxPoint x="480" y="1159" as="sourcePoint"/>
                        <mxPoint x="600" y="1170" as="targetPoint"/>
                    </mxGeometry>
                </mxCell>
                <mxCell id="216" value="" style="endArrow=none;html=1;exitX=1;exitY=0.5;exitDx=0;exitDy=0;exitPerimeter=0;" edge="1" parent="1" source="214">
                    <mxGeometry width="50" height="50" relative="1" as="geometry">
                        <mxPoint x="560" y="1210" as="sourcePoint"/>
                        <mxPoint x="560" y="1159" as="targetPoint"/>
                    </mxGeometry>
                </mxCell>
                <mxCell id="223" value="" style="endArrow=classic;html=1;" edge="1" parent="1" source="224">
                    <mxGeometry width="50" height="50" relative="1" as="geometry">
                        <mxPoint x="739.5" y="1158" as="sourcePoint"/>
                        <mxPoint x="880" y="1158" as="targetPoint"/>
                    </mxGeometry>
                </mxCell>
                <mxCell id="224" value="+ 15*I" style="rounded=0;whiteSpace=wrap;html=1;" vertex="1" parent="1">
                    <mxGeometry x="819.5" y="1148" width="40" height="20" as="geometry"/>
                </mxCell>
                <mxCell id="225" value="" style="verticalLabelPosition=bottom;shadow=0;dashed=0;align=center;html=1;verticalAlign=top;shape=mxgraph.electrical.logic_gates.inverter_2" vertex="1" parent="1">
                    <mxGeometry x="759.5" y="1149" width="40" height="20" as="geometry"/>
                </mxCell>
                <mxCell id="226" value="" style="endArrow=none;html=1;entryX=0;entryY=0.5;entryDx=0;entryDy=0;entryPerimeter=0;" edge="1" parent="1" target="225">
                    <mxGeometry width="50" height="50" relative="1" as="geometry">
                        <mxPoint x="740" y="1159" as="sourcePoint"/>
                        <mxPoint x="860" y="1170" as="targetPoint"/>
                    </mxGeometry>
                </mxCell>
                <mxCell id="227" value="" style="endArrow=none;html=1;exitX=1;exitY=0.5;exitDx=0;exitDy=0;exitPerimeter=0;" edge="1" parent="1" source="225">
                    <mxGeometry width="50" height="50" relative="1" as="geometry">
                        <mxPoint x="820" y="1210" as="sourcePoint"/>
                        <mxPoint x="820" y="1159" as="targetPoint"/>
                    </mxGeometry>
                </mxCell>
                <mxCell id="228" value="" style="endArrow=none;html=1;" edge="1" parent="1">
                    <mxGeometry width="50" height="50" relative="1" as="geometry">
                        <mxPoint x="480" y="1160" as="sourcePoint"/>
                        <mxPoint x="480" y="1070" as="targetPoint"/>
                    </mxGeometry>
                </mxCell>
                <mxCell id="230" value="" style="endArrow=none;html=1;" edge="1" parent="1">
                    <mxGeometry width="50" height="50" relative="1" as="geometry">
                        <mxPoint x="1500" y="850" as="sourcePoint"/>
                        <mxPoint x="1530" y="850" as="targetPoint"/>
                    </mxGeometry>
                </mxCell>
                <mxCell id="231" value="" style="endArrow=none;html=1;" edge="1" parent="1">
                    <mxGeometry width="50" height="50" relative="1" as="geometry">
                        <mxPoint x="1530" y="1070" as="sourcePoint"/>
                        <mxPoint x="1530" y="850" as="targetPoint"/>
                    </mxGeometry>
                </mxCell>
                <mxCell id="229" value="" style="endArrow=none;html=1;" edge="1" parent="1">
                    <mxGeometry width="50" height="50" relative="1" as="geometry">
                        <mxPoint x="480" y="1070" as="sourcePoint"/>
                        <mxPoint x="1530" y="1070" as="targetPoint"/>
                    </mxGeometry>
                </mxCell>
                <mxCell id="205" value="KV" style="text;html=1;align=center;verticalAlign=middle;whiteSpace=wrap;rounded=0;" vertex="1" parent="1">
                    <mxGeometry x="490" y="1040" width="20" height="30" as="geometry"/>
                </mxCell>
                <mxCell id="232" value="" style="endArrow=classic;html=1;" edge="1" parent="1">
                    <mxGeometry width="50" height="50" relative="1" as="geometry">
                        <mxPoint x="580" y="1110" as="sourcePoint"/>
                        <mxPoint x="620" y="1110" as="targetPoint"/>
                    </mxGeometry>
                </mxCell>
                <mxCell id="233" value="" style="endArrow=none;html=1;" edge="1" parent="1">
                    <mxGeometry width="50" height="50" relative="1" as="geometry">
                        <mxPoint x="580" y="1110" as="sourcePoint"/>
                        <mxPoint x="580" y="1070" as="targetPoint"/>
                    </mxGeometry>
                </mxCell>
                <mxCell id="234" value="" style="rounded=0;whiteSpace=wrap;html=1;fontStyle=1" vertex="1" parent="1">
                    <mxGeometry x="880" y="1090" width="120" height="88.5" as="geometry"/>
                </mxCell>
                <mxCell id="235" value="MatMul&lt;div&gt;(torch.MatMul)&lt;/div&gt;" style="text;html=1;align=left;verticalAlign=middle;whiteSpace=wrap;rounded=0;" vertex="1" parent="1">
                    <mxGeometry x="890" y="1098" width="60" height="39" as="geometry"/>
                </mxCell>
                <mxCell id="236" value="" style="endArrow=classic;html=1;" edge="1" parent="1">
                    <mxGeometry width="50" height="50" relative="1" as="geometry">
                        <mxPoint x="840" y="1109.5" as="sourcePoint"/>
                        <mxPoint x="880" y="1109.5" as="targetPoint"/>
                    </mxGeometry>
                </mxCell>
                <mxCell id="237" value="" style="endArrow=none;html=1;" edge="1" parent="1">
                    <mxGeometry width="50" height="50" relative="1" as="geometry">
                        <mxPoint x="840" y="1109.5" as="sourcePoint"/>
                        <mxPoint x="840" y="1069.5" as="targetPoint"/>
                    </mxGeometry>
                </mxCell>
                <mxCell id="238" value="" style="endArrow=classic;html=1;" edge="1" parent="1" source="239">
                    <mxGeometry width="50" height="50" relative="1" as="geometry">
                        <mxPoint x="999.5" y="1157.5" as="sourcePoint"/>
                        <mxPoint x="1140" y="1157.5" as="targetPoint"/>
                    </mxGeometry>
                </mxCell>
                <mxCell id="239" value="+ 13*I" style="rounded=0;whiteSpace=wrap;html=1;" vertex="1" parent="1">
                    <mxGeometry x="1079.5" y="1147.5" width="40" height="20" as="geometry"/>
                </mxCell>
                <mxCell id="240" value="" style="verticalLabelPosition=bottom;shadow=0;dashed=0;align=center;html=1;verticalAlign=top;shape=mxgraph.electrical.logic_gates.inverter_2" vertex="1" parent="1">
                    <mxGeometry x="1019.5" y="1148.5" width="40" height="20" as="geometry"/>
                </mxCell>
                <mxCell id="241" value="" style="endArrow=none;html=1;entryX=0;entryY=0.5;entryDx=0;entryDy=0;entryPerimeter=0;" edge="1" parent="1" target="240">
                    <mxGeometry width="50" height="50" relative="1" as="geometry">
                        <mxPoint x="1000" y="1158.5" as="sourcePoint"/>
                        <mxPoint x="1120" y="1169.5" as="targetPoint"/>
                    </mxGeometry>
                </mxCell>
                <mxCell id="242" value="" style="endArrow=none;html=1;exitX=1;exitY=0.5;exitDx=0;exitDy=0;exitPerimeter=0;" edge="1" parent="1" source="240">
                    <mxGeometry width="50" height="50" relative="1" as="geometry">
                        <mxPoint x="1080" y="1209.5" as="sourcePoint"/>
                        <mxPoint x="1080" y="1158.5" as="targetPoint"/>
                    </mxGeometry>
                </mxCell>
                <mxCell id="243" value="" style="rounded=0;whiteSpace=wrap;html=1;fontStyle=1" vertex="1" parent="1">
                    <mxGeometry x="1140" y="1090" width="120" height="88" as="geometry"/>
                </mxCell>
                <mxCell id="244" value="MatMul&lt;div&gt;(torch.MatMul)&lt;/div&gt;" style="text;html=1;align=left;verticalAlign=middle;whiteSpace=wrap;rounded=0;" vertex="1" parent="1">
                    <mxGeometry x="1150" y="1098" width="60" height="39" as="geometry"/>
                </mxCell>
                <mxCell id="245" value="" style="endArrow=classic;html=1;" edge="1" parent="1" source="249">
                    <mxGeometry width="50" height="50" relative="1" as="geometry">
                        <mxPoint x="1060" y="1109" as="sourcePoint"/>
                        <mxPoint x="1140" y="1109" as="targetPoint"/>
                    </mxGeometry>
                </mxCell>
                <mxCell id="248" value="" style="endArrow=none;html=1;" edge="1" parent="1">
                    <mxGeometry width="50" height="50" relative="1" as="geometry">
                        <mxPoint x="1310" y="990" as="sourcePoint"/>
                        <mxPoint x="1310" y="880" as="targetPoint"/>
                    </mxGeometry>
                </mxCell>
                <mxCell id="249" value="* 0.25" style="rounded=0;whiteSpace=wrap;html=1;" vertex="1" parent="1">
                    <mxGeometry x="1079.5" y="1099" width="40" height="20" as="geometry"/>
                </mxCell>
                <mxCell id="251" value="" style="endArrow=none;html=1;entryX=0;entryY=0.5;entryDx=0;entryDy=0;" edge="1" parent="1" target="249">
                    <mxGeometry width="50" height="50" relative="1" as="geometry">
                        <mxPoint x="1060" y="1109" as="sourcePoint"/>
                        <mxPoint x="1110" y="1090" as="targetPoint"/>
                    </mxGeometry>
                </mxCell>
                <mxCell id="253" value="" style="endArrow=none;html=1;" edge="1" parent="1">
                    <mxGeometry width="50" height="50" relative="1" as="geometry">
                        <mxPoint x="1350" y="1134" as="sourcePoint"/>
                        <mxPoint x="1350" y="880" as="targetPoint"/>
                    </mxGeometry>
                </mxCell>
                <mxCell id="255" value="" style="endArrow=none;html=1;" edge="1" parent="1">
                    <mxGeometry width="50" height="50" relative="1" as="geometry">
                        <mxPoint x="1360" y="720" as="sourcePoint"/>
                        <mxPoint x="1600" y="720" as="targetPoint"/>
                    </mxGeometry>
                </mxCell>
                <mxCell id="258" value="" style="endArrow=none;html=1;" edge="1" parent="1">
                    <mxGeometry width="50" height="50" relative="1" as="geometry">
                        <mxPoint x="1350" y="1135" as="sourcePoint"/>
                        <mxPoint x="1600" y="1135" as="targetPoint"/>
                    </mxGeometry>
                </mxCell>
                <mxCell id="259" value="" style="endArrow=none;html=1;" edge="1" parent="1">
                    <mxGeometry width="50" height="50" relative="1" as="geometry">
                        <mxPoint x="1600" y="1135" as="sourcePoint"/>
                        <mxPoint x="1600" y="720" as="targetPoint"/>
                    </mxGeometry>
                </mxCell>
                <mxCell id="260" value="" style="endArrow=none;html=1;" edge="1" parent="1">
                    <mxGeometry width="50" height="50" relative="1" as="geometry">
                        <mxPoint x="1040" y="340" as="sourcePoint"/>
                        <mxPoint x="1060" y="340" as="targetPoint"/>
                    </mxGeometry>
                </mxCell>
            </root>
        </mxGraphModel>
    </diagram>
</mxfile>